<svg width="195" height="168" viewBox="0 0 195 168" fill="none" xmlns="http://www.w3.org/2000/svg">
<rect width="195" height="168" fill="#1E1E1E"/>
<path d="M-2419 -2557C-2419 -2558.1 -2418.1 -2559 -2417 -2559H20754C20755.1 -2559 20756 -2558.1 20756 -2557V10795C20756 10796.1 20755.1 10797 20754 10797H-2417C-2418.1 10797 -2419 10796.1 -2419 10795V-2557Z" fill="#303030"/>
<path d="M-2417 -2558H20754V-2560H-2417V-2558ZM20755 -2557V10795H20757V-2557H20755ZM20754 10796H-2417V10798H20754V10796ZM-2418 10795V-2557H-2420V10795H-2418ZM-2417 10796C-2417.55 10796 -2418 10795.6 -2418 10795H-2420C-2420 10796.7 -2418.66 10798 -2417 10798V10796ZM20755 10795C20755 10795.6 20754.6 10796 20754 10796V10798C20755.7 10798 20757 10796.7 20757 10795H20755ZM20754 -2558C20754.6 -2558 20755 -2557.55 20755 -2557H20757C20757 -2558.66 20755.7 -2560 20754 -2560V-2558ZM-2417 -2560C-2418.66 -2560 -2420 -2558.66 -2420 -2557H-2418C-2418 -2557.55 -2417.55 -2558 -2417 -2558V-2560Z" fill="white" fill-opacity="0.1"/>
<g clip-path="url(#clip0_2089_1117)">
<rect width="1440" height="4069" transform="translate(-615 -2232)" fill="white"/>
<g clip-path="url(#clip1_2089_1117)">
<g clip-path="url(#clip2_2089_1117)">
<path d="M103.746 143.126C141.187 143.126 171.539 112.774 171.539 75.3328C171.539 37.8919 141.187 7.54004 103.746 7.54004C66.305 7.54004 35.9531 37.8919 35.9531 75.3328C35.9531 112.774 66.305 143.126 103.746 143.126Z" fill="#999999" fill-opacity="0.2"/>
<path d="M-7.16797 129.474C1.9347 129.548 17.288 129.638 15.7429 129.401C13.5601 129.065 15.5747 115.798 15.071 107.233C14.5674 98.668 14.231 10.6676 13.8955 12.0121C13.5601 13.3558 17.7584 12.3485 21.7885 11.5085C25.8187 10.6685 30.3534 8.98931 29.6816 8.98931C29.0097 8.98931 31.5289 137.798 28.1706 137.63C24.8114 137.462 15.4074 130.913 17.9266 131.585C20.4457 132.256 29.0106 135.783 29.3461 137.63C29.6824 139.478 29.8506 141.157 30.6898 141.325C31.5298 141.492 33.8808 141.66 34.2163 140.82C34.5526 139.981 34.7208 138.973 34.5526 138.469C34.3853 137.966 28.3396 137.462 31.8661 137.966C34.8469 138.391 70.9467 136.057 82.2488 135.629C84.3169 135.551 85.5546 135.537 85.6071 135.614C85.9426 136.118 85.2708 138.637 85.2708 138.637C85.2708 138.637 81.7434 139.813 81.5761 138.805C81.4079 137.798 79.3933 137.798 81.2397 136.622C83.0871 135.447 87.4536 136.622 87.9572 134.942C88.4609 133.263 85.4381 57.0192 86.2781 55.8437C87.1181 54.6682 89.4691 53.3245 88.1254 54.8364C86.7826 56.3474 34.7217 53.9964 33.7135 54.3327C32.7062 54.6691 32.538 137.798 32.538 137.126C32.538 136.454 35.8963 136.958 34.889 136.118C33.8816 135.278 34.049 105.218 34.889 105.218C35.729 105.218 38.5836 104.378 38.5836 105.385C38.5836 106.393 37.2408 109.248 38.4155 109.92C39.591 110.592 43.1175 111.6 43.4538 110.257C43.7893 108.914 43.2856 57.3556 43.1175 56.8519C42.9502 56.3474 38.4155 55.6764 38.4155 56.5164V59.2029H35.8963C35.8963 59.2029 34.7208 63.9049 35.3926 64.0731C36.0636 64.2404 38.08 65.2486 38.5836 64.4094C39.0882 63.5694 39.4228 59.2029 38.5836 61.0503C37.7436 62.8976 39.0882 104.546 38.9191 103.371C38.7518 102.194 38.2473 100.683 37.24 100.683C36.2326 100.683 35.0563 107.906 35.0563 102.699C35.0563 97.4925 35.0563 50.3026 34.2163 49.9662C33.3771 49.6299 30.6898 50.4699 32.7053 50.6381C34.7208 50.8054 88.2936 51.9817 87.4536 52.4854C86.6136 52.9891 87.2854 11.3403 86.4454 10.1648C85.6062 8.98931 33.5453 6.80562 32.7044 8.82113C31.8653 10.8366 31.5289 47.2797 32.368 47.6152C33.2081 47.9516 35.2236 48.4552 35.2236 47.7825C35.2236 47.1098 35.5591 45.2642 35.5591 45.2642C35.5591 45.2642 36.0627 47.447 37.2391 47.9516C38.4146 48.4552 42.1093 49.6307 42.2766 47.9516C42.4447 46.2715 41.9402 12.1803 41.1011 12.0121C40.2611 11.844 36.5673 12.1794 36.5673 12.1794C36.5673 12.1794 36.7346 14.0268 36.0627 14.3631C35.3918 14.6986 33.7117 14.3631 33.7117 15.2023V19.5688C33.7117 19.5688 35.5591 20.7443 35.8954 20.0733C36.2318 19.4015 36.2318 14.6986 35.8954 16.3787C35.5591 18.0578 35.7281 43.0814 35.8954 43.5851C36.0627 44.0887 78.3833 44.9279 78.5524 44.0887M84.5972 44.9279C85.269 46.9434 85.4372 90.7758 83.758 94.1342C82.078 97.4925 68.4757 103.203 70.6585 104.714C72.8422 106.225 82.4143 107.569 80.2315 111.599C78.0487 115.63 43.1175 121.507 47.6522 122.515C52.186 123.523 75.6977 125.706 69.652 128.561C63.6055 131.416 38.7518 132.927 47.1476 133.936C55.5452 134.943 84.0944 132.256 84.0944 133.936C84.0944 135.616 82.247 136.79 84.598 137.294C86.201 137.637 167.456 137.617 219.019 137.57" stroke="#121212" stroke-width="1.3409" stroke-linecap="round" stroke-linejoin="round"/>
<g clip-path="url(#clip3_2089_1117)">
<path d="M208.041 130.9C206.682 130.648 190.628 131.198 189.265 130.945C188.824 130.863 188.164 131.443 187.823 131.167C185.783 129.522 191.416 129.215 186.852 131.785C183.117 133.888 174.733 135.301 170.478 135.919C170.188 135.961 169.798 136.209 169.986 136.418C170.084 136.697 170.485 136.324 170.507 136.028C170.914 130.53 170.771 124.962 170.073 119.42C168.819 109.448 170.655 99.1482 170.903 88.7869C170.964 86.2243 171.025 83.6379 170.646 81.0867C169.916 76.1791 169.356 73.8226 169.494 68.5881C169.667 62.0324 169.841 55.4164 170.017 48.7392C170.032 48.1609 169.926 47.413 169.367 47.2887C169.095 47.8124 169.638 48.3757 170.121 48.7069C176.22 52.8882 187.126 56.1283 194.081 58.3052C194.106 57.8856 194.132 57.466 194.157 57.0458C193.601 56.9567 193.35 57.7333 193.328 58.303C192.48 81.0925 191.767 103.179 191.183 124.594C191.133 126.419 191.014 127.944 191.106 129.753C191.692 129.655 191.624 128.705 191.086 128.482C190.547 128.258 189.92 128.509 189.379 128.758C185.477 130.542 177.338 132.325 173.443 134.106C172.996 115.07 173.664 95.4698 174.35 75.3263C174.567 68.9682 174.738 63.0411 174.9 56.5716C178.633 56.4293 186.623 57.4352 189.752 59.4152C185.087 58.7679 176.293 57.262 172.135 54.9853C170.198 53.9242 168.119 52.2933 168.183 50.0583C168.21 49.1236 168.57 48.0093 167.889 47.3728C167.418 46.9324 166.689 46.9934 166.052 47.0725C152.135 48.8089 137.736 45.9768 123.801 48.4289C119.372 49.2084 114.911 50.5202 110.407 49.8003C109.943 49.7264 109.489 48.9648 109.958 48.9957C110.137 53.6102 110.315 58.196 110.492 62.7516C111.627 62.7695 112.761 62.7875 113.895 62.8047C113.564 59.3498 113.686 55.8517 114.26 52.4269C116.262 52.4198 118.263 52.4126 120.262 52.4054C120.279 53.8042 120.296 55.2015 120.313 56.5953C118.477 56.6154 116.635 56.55 114.796 56.3992C114.332 55.8539 115.376 55.3546 116.08 55.4293C118.276 55.6613 120.469 55.8934 122.66 56.1247C122.646 54.9601 122.633 53.7934 122.619 52.6252C124.524 52.6612 126.428 52.6971 128.33 52.7337C128.338 53.9091 128.347 55.0823 128.355 56.254C126.803 56.4099 125.233 56.4293 123.668 56.3144C123.409 56.017 123.273 55.6175 123.298 55.231C125.801 54.7597 128.447 54.9803 130.865 55.8611C130.583 54.5557 130.875 53.1475 131.651 52.0821C131.898 55.2777 131.971 58.4683 131.873 61.6366C136.206 61.7702 140.53 61.9038 144.846 62.0374C144.762 59.0516 144.822 56.0514 145.025 53.0505C145.055 52.5958 145.108 52.0993 145.43 51.7804C145.789 51.4262 146.354 51.4132 146.86 51.4226C152.902 51.5361 158.928 51.6496 164.937 51.7624C165.895 54.5499 166.42 57.4747 166.49 60.3994C160.835 60.6904 155.152 60.6889 149.467 60.3915C148.877 58.7233 148.669 56.9208 148.865 55.162C153.399 55.2245 157.924 55.287 162.439 55.3495C162.774 56.5206 162.856 57.7613 162.678 58.9625C159.569 58.9302 156.454 58.8979 153.335 58.8656C152.812 58.8598 152.074 59.3304 152.464 59.681C157.157 59.8462 161.841 60.0115 166.513 60.176C166.229 61.8765 167.612 63.6582 169.321 63.8019C169.326 63.3558 169.331 62.9096 169.335 62.4635C152.38 65.1281 134.769 61.6308 117.537 63.8709C117.197 63.9147 116.83 63.9578 116.521 63.7962C116.212 63.6352 116.036 63.1805 116.279 62.9455C117.212 70.2542 117.164 77.5793 116.154 84.676C114.314 84.9857 113.653 85.2953 111.811 85.6057C111.798 88.8846 112.16 92.1478 112.148 95.3972C112.147 95.7859 112.158 96.2098 112.412 96.518C112.704 96.8707 113.216 96.9526 113.676 96.9972C115.102 97.1366 114.981 97.1768 116.405 97.1186C117.529 99.9773 118.963 102.489 120.838 104.935C121.83 106.23 122.931 107.465 124.27 108.418C125.507 109.299 126.919 109.919 128.351 110.445C135.248 112.976 142.908 113.406 149.989 111.674C152.891 110.964 155.771 109.857 157.975 107.892C161.807 104.477 162.979 99.0979 163.527 94.0308C163.983 89.8229 164.149 85.5094 163.258 81.3253C162.362 77.1145 160.315 73.0115 156.936 70.229C153.856 67.693 149.883 66.4106 145.905 65.8423C139.406 64.9148 132.665 65.7841 126.661 68.3288C124.188 69.377 121.776 70.7592 120.175 72.8757C118.558 75.0145 117.911 77.7087 117.472 80.3432C116.757 84.6293 116.499 89.0226 117.337 93.275C118.169 97.5001 120.149 101.593 123.388 104.515C126.989 107.762 131.96 109.364 136.826 109.405C141.68 109.445 146.452 108.022 150.741 105.848C152.64 104.886 154.534 103.704 155.617 101.908C156.269 100.826 156.586 99.5857 156.856 98.3572C157.91 93.5588 158.366 88.4938 157.12 83.6767C155.865 78.8244 152.677 74.2401 147.995 72.1537C146.133 71.3239 144.11 70.9108 142.086 70.6314C138.096 70.081 133.937 70.0466 130.162 71.3814C126.389 72.7155 123.06 75.5864 121.992 79.3725C121.496 81.1291 121.499 82.9848 121.505 84.8089C121.512 86.896 121.519 88.9759 121.526 91.0507C121.532 92.8346 121.548 94.6673 122.252 96.3204C122.947 95.8779 122.971 94.8246 122.497 94.1421C122.022 93.4589 121.206 93.0796 120.404 92.8094C118.095 92.0314 115.567 91.9056 113.216 92.4509C113.043 89.0721 112.871 85.6775 112.697 82.2664C111.749 82.2183 110.8 82.1694 109.851 82.1206C109.183 77.4213 108.972 72.6423 109.226 67.8719C109.268 67.0974 109.489 66.1289 110.265 66.0097C110.668 79.2274 111.063 92.2059 111.452 104.95C111.671 112.142 111.77 118.8 111.885 125.852C111.927 128.411 111.963 131.006 111.223 133.436C110.936 133.816 110.136 133.455 110.259 133.002C124.761 133.005 139.169 133.007 153.485 133.009C158.485 133.01 163.496 133.013 168.405 133.713C168.287 128.545 167.869 123.349 167.152 118.156C167.058 117.48 166.952 116.784 166.58 116.206C165.805 115.002 164.128 114.678 162.647 114.737C161.165 114.797 159.651 115.123 158.216 114.769C157.74 116.434 158.249 118.213 159.067 119.728C159.883 121.239 160.998 122.577 161.864 124.053C162.12 124.49 162.363 124.984 162.257 125.478C162.039 126.506 160.627 126.744 159.532 126.75C149.918 126.8 140.262 126.85 130.566 126.9C130.937 127.9 132.029 128.503 133.105 128.781C134.18 129.059 135.314 129.104 136.367 129.443C136.893 129.612 137.472 130.197 137.077 130.564C131.124 130.606 125.155 130.626 119.17 130.624C118.487 130.624 117.788 130.621 117.145 130.395C115.98 129.986 115.192 128.895 114.874 127.758C114.555 126.62 114.631 125.425 114.71 124.252C114.785 127.747 114.858 131.224 114.932 134.683C114.938 134.961 114.959 135.275 115.181 135.464C115.367 135.622 115.638 135.644 115.888 135.655C117.116 135.708 118.345 135.716 119.57 135.678C119.291 134.987 120.388 134.594 121.17 134.592C133.886 134.558 146.53 134.524 159.104 134.49C158.556 135.163 158.972 136.212 159.729 136.643C160.487 137.074 161.436 137.046 162.32 136.946C163.203 136.847 164.11 136.689 164.964 136.899C165.037 136.401 164.994 135.89 164.84 135.413C161.515 135.411 158.187 135.41 154.853 135.409C154.848 135.75 154.843 136.09 154.839 136.431C138.523 136.439 122.087 136.446 105.529 136.454" stroke="#363435" stroke-width="1.19034" stroke-linecap="round" stroke-linejoin="round"/>
</g>
</g>
</g>
</g>
<defs>
<clipPath id="clip0_2089_1117">
<rect width="1440" height="4069" fill="white" transform="translate(-615 -2232)"/>
</clipPath>
<clipPath id="clip1_2089_1117">
<rect width="194.458" height="180" fill="white" transform="translate(0 -9)"/>
</clipPath>
<clipPath id="clip2_2089_1117">
<rect width="203" height="168" fill="white" transform="translate(-5)"/>
</clipPath>
<clipPath id="clip3_2089_1117">
<rect width="104.75" height="118.821" fill="white" transform="translate(104 33)"/>
</clipPath>
</defs>
</svg>
