<svg width="32" height="32" viewBox="0 0 32 32" fill="none" xmlns="http://www.w3.org/2000/svg">
<g id="Layer 2">
<g id="icons Q2">
<path id="Path 3360" fill-rule="evenodd" clip-rule="evenodd" d="M17.5234 16.3875L24.7614 9.21784C25.2498 8.71857 25.3075 7.94 24.8979 7.37422C24.6739 7.0407 24.3081 6.82979 23.9072 6.80305C23.5063 6.77633 23.1157 6.93683 22.8495 7.23764L15.6115 14.4756L8.37361 7.23764C8.10734 6.93681 7.71672 6.77632 7.31585 6.80305C6.91499 6.82977 6.54913 7.0407 6.32515 7.37422C5.91558 7.94 5.97326 8.71859 6.46171 9.21784L13.6996 16.3875L6.46171 23.5571C5.97324 24.0564 5.91558 24.8349 6.32515 25.4007C6.54913 25.7342 6.915 25.9451 7.31585 25.9719C7.71672 25.9986 8.10734 25.8381 8.37361 25.5373L15.6115 18.2994L22.8495 25.5373C23.1157 25.8381 23.5063 25.9986 23.9072 25.9719C24.3081 25.9452 24.6739 25.7342 24.8979 25.4007C25.3075 24.8349 25.2498 24.0563 24.7614 23.5571L17.5234 16.3875Z" fill="#121212"/>
</g>
</g>
</svg>
