<svg width="34" height="34" viewBox="0 0 34 34" fill="none" xmlns="http://www.w3.org/2000/svg">
<g id="facebook_symbol.svg" clip-path="url(#clip0_2241_5234)">
<g id="g10">
<g id="g12">
<path id="path14" d="M33.5 17.0352C33.5 7.92246 26.1127 0.535164 17 0.535164C7.88729 0.535164 0.5 7.92246 0.5 17.0352C0.5 25.2708 6.53381 32.0969 14.4219 33.3347V21.8047H10.2324V17.0352H14.4219V13.4C14.4219 9.2647 16.8852 6.98048 20.6542 6.98048C22.4594 6.98048 24.3477 7.30274 24.3477 7.30274V11.3633H22.267C20.2173 11.3633 19.5781 12.6352 19.5781 13.94V17.0352H24.1543L23.4228 21.8047H19.5781V33.3347C27.4662 32.0969 33.5 25.2708 33.5 17.0352Z" fill="#1877F2"/>
<path id="path16" d="M23.4228 21.8047L24.1543 17.0352H19.5781V13.94C19.5781 12.6352 20.2173 11.3633 22.267 11.3633H24.3477V7.30273C24.3477 7.30273 22.4594 6.98047 20.6542 6.98047C16.8852 6.98047 14.4219 9.26469 14.4219 13.4V17.0352H10.2324V21.8047H14.4219V33.3347C15.2619 33.4665 16.1229 33.5352 17 33.5352C17.8771 33.5352 18.7381 33.4665 19.5781 33.3347V21.8047H23.4228Z" fill="white"/>
</g>
</g>
</g>
<defs>
<clipPath id="clip0_2241_5234">
<rect width="33" height="33" fill="white" transform="translate(0.5 0.535156)"/>
</clipPath>
</defs>
</svg>
