<svg width="34" height="34" viewBox="0 0 34 34" fill="none" xmlns="http://www.w3.org/2000/svg">
<g id="google_symbol.svg">
<path id="Vector" d="M31.52 17.3789C31.52 16.3064 31.4238 15.2752 31.245 14.2852H17V20.1358H25.14C24.7894 22.0264 23.7238 23.6283 22.1219 24.7008V28.4958H27.01C29.87 25.8627 31.52 21.9852 31.52 17.3789Z" fill="#4285F4"/>
<path id="Vector_2" d="M17.0006 32.1602C21.0844 32.1602 24.5081 30.8058 27.0106 28.4958L22.1225 24.7008C20.7681 25.6083 19.0356 26.1446 17.0006 26.1446C13.0612 26.1446 9.72687 23.4839 8.5375 19.9089H3.48438V23.8277C5.97312 28.7708 11.0881 32.1602 17.0006 32.1602Z" fill="#34A853"/>
<path id="Vector_3" d="M8.53688 19.9089C8.23438 19.0014 8.0625 18.032 8.0625 17.0352C8.0625 16.0383 8.23438 15.0689 8.53688 14.1614V10.2427H3.48375C2.425 12.3503 1.87407 14.6765 1.875 17.0352C1.875 19.4758 2.45938 21.7858 3.48375 23.8277L8.53688 19.9089Z" fill="#FBBC05"/>
<path id="Vector_4" d="M17.0006 7.92578C19.2212 7.92578 21.215 8.68891 22.7825 10.1877L27.1206 5.84953C24.5012 3.40891 21.0775 1.91016 17.0006 1.91016C11.0881 1.91016 5.97312 5.29953 3.48438 10.2427L8.5375 14.1614C9.72687 10.5864 13.0612 7.92578 17.0006 7.92578Z" fill="#EA4335"/>
</g>
</svg>
