<svg xmlns="http://www.w3.org/2000/svg" width="24" height="21" viewBox="0 0 24 21" fill="none">
<path d="M15.9615 5H9.03846C7.96775 5.00115 6.94121 5.42699 6.1841 6.1841C5.42699 6.94121 5.00115 7.96775 5 9.03846V15.9615C5.00115 17.0323 5.42699 18.0588 6.1841 18.8159C6.94121 19.573 7.96775 19.9989 9.03846 20H15.9615C17.0323 19.9989 18.0588 19.573 18.8159 18.8159C19.573 18.0588 19.9989 17.0323 20 15.9615V9.03846C19.9989 7.96775 19.573 6.94121 18.8159 6.1841C18.0588 5.42699 17.0323 5.00115 15.9615 5ZM12.5 15.9615C11.8154 15.9615 11.1461 15.7585 10.5769 15.3782C10.0076 14.9978 9.56395 14.4572 9.30196 13.8247C9.03996 13.1922 8.97141 12.4962 9.10497 11.8247C9.23854 11.1532 9.56822 10.5364 10.0523 10.0523C10.5364 9.56822 11.1532 9.23854 11.8247 9.10497C12.4962 8.97141 13.1922 9.03996 13.8247 9.30196C14.4572 9.56395 14.9978 10.0076 15.3782 10.5769C15.7585 11.1461 15.9615 11.8154 15.9615 12.5C15.9606 13.4178 15.5956 14.2977 14.9466 14.9466C14.2977 15.5956 13.4178 15.9606 12.5 15.9615ZM16.8269 9.03846C16.6558 9.03846 16.4885 8.98771 16.3461 8.89262C16.2038 8.79753 16.0929 8.66237 16.0274 8.50425C15.9619 8.34612 15.9448 8.17212 15.9782 8.00425C16.0116 7.83638 16.094 7.68218 16.215 7.56116C16.336 7.44013 16.4902 7.35771 16.6581 7.32432C16.826 7.29093 17 7.30807 17.1581 7.37357C17.3162 7.43906 17.4514 7.54998 17.5465 7.69229C17.6416 7.83461 17.6923 8.00192 17.6923 8.17308C17.6923 8.40259 17.6011 8.62271 17.4388 8.785C17.2766 8.94729 17.0564 9.03846 16.8269 9.03846ZM14.8077 12.5C14.8077 12.9564 14.6723 13.4026 14.4188 13.7821C14.1652 14.1616 13.8048 14.4574 13.3831 14.632C12.9614 14.8067 12.4974 14.8524 12.0498 14.7634C11.6021 14.6743 11.191 14.4545 10.8682 14.1318C10.5455 13.809 10.3257 13.3979 10.2366 12.9502C10.1476 12.5026 10.1933 12.0386 10.368 11.6169C10.5426 11.1952 10.8384 10.8348 11.2179 10.5812C11.5974 10.3277 12.0436 10.1923 12.5 10.1923C13.112 10.1923 13.699 10.4354 14.1318 10.8682C14.5646 11.301 14.8077 11.888 14.8077 12.5Z" fill="white"/>
</svg>