<svg xmlns="http://www.w3.org/2000/svg" width="24" height="21" viewBox="0 0 24 21" fill="none">
<path fill-rule="evenodd" clip-rule="evenodd" d="M18.3688 18.9976H5.14712C4.51337 18.9976 4 18.5479 4 17.9934V6.00344C4 5.44968 4.51337 5 5.14712 5H18.3688C19.0018 5 19.5152 5.44968 19.5152 6.00344V17.9934C19.5152 18.5479 19.0018 18.9976 18.3688 18.9976ZM6.68881 16.6921H8.97372V10.3725H6.68881V16.6921ZM7.84675 7.32635C7.06466 7.32635 6.5544 7.79778 6.5544 8.41832C6.5544 9.02411 7.0499 9.5103 7.81646 9.5103H7.83121C8.62806 9.5103 9.12356 9.02411 9.12356 8.41832C9.10958 7.79778 8.62806 7.32635 7.84675 7.32635ZM17.2124 13.0679C17.2124 11.1263 16.0847 10.2231 14.5818 10.2231C13.3687 10.2231 12.8266 10.8358 12.5229 11.2669V10.3714H10.238C10.2683 10.9648 10.238 16.691 10.238 16.691H12.5229V13.1619C12.5229 12.974 12.5377 12.7845 12.5983 12.6501C12.7629 12.2726 13.1396 11.882 13.7702 11.882C14.5974 11.882 14.9275 12.4614 14.9275 13.311V16.691H17.2124V13.0679ZM12.5075 11.289C12.5122 11.282 12.5184 11.2751 12.523 11.2681V11.289H12.5075Z" fill="white"/>
</svg>