<svg xmlns="http://www.w3.org/2000/svg" width="20" height="20" viewBox="0 0 20 20" fill="none">
<path fill-rule="evenodd" clip-rule="evenodd" d="M6.05859 9.12682C6.05859 8.10069 6.46622 7.1166 7.1918 6.39102C7.91738 5.66544 8.90147 5.25781 9.9276 5.25781C10.9537 5.25781 11.9378 5.66544 12.6634 6.39102C13.389 7.1166 13.7966 8.10069 13.7966 9.12682C13.7966 10.1529 13.389 11.137 12.6634 11.8626C11.9378 12.5882 10.9537 12.9958 9.9276 12.9958C8.90147 12.9958 7.91738 12.5882 7.1918 11.8626C6.46622 11.137 6.05859 10.1529 6.05859 9.12682ZM9.9276 6.4796C9.22551 6.4796 8.55218 6.7585 8.05573 7.25495C7.55929 7.7514 7.28038 8.42473 7.28038 9.12682C7.28038 9.8289 7.55929 10.5022 8.05573 10.9987C8.55218 11.4951 9.22551 11.774 9.9276 11.774C10.6297 11.774 11.303 11.4951 11.7995 10.9987C12.2959 10.5022 12.5748 9.8289 12.5748 9.12682C12.5748 8.42473 12.2959 7.7514 11.7995 7.25495C11.303 6.7585 10.6297 6.4796 9.9276 6.4796Z" fill="#666666"/>
<path fill-rule="evenodd" clip-rule="evenodd" d="M3.02463 8.19611C3.16385 6.50743 3.93301 4.93286 5.17939 3.78501C6.42577 2.63717 8.05822 1.99999 9.75262 2H10.1045C11.7989 1.99999 13.4313 2.63717 14.6777 3.78501C15.9241 4.93286 16.6933 6.50743 16.8325 8.19611C16.9874 10.0771 16.4063 11.9448 15.2116 13.4058L11.3076 18.1798C11.1405 18.3841 10.9301 18.5487 10.6916 18.6618C10.4531 18.7748 10.1925 18.8335 9.92856 18.8335C9.66463 18.8335 9.404 18.7748 9.16551 18.6618C8.92703 18.5487 8.71664 18.3841 8.54956 18.1798L4.64554 13.4058C3.45072 11.9448 2.86961 10.0771 3.02463 8.19611ZM9.75262 3.22179C8.36506 3.222 7.0283 3.74392 6.00769 4.68396C4.98707 5.624 4.35722 6.91343 4.24316 8.29629C4.11414 9.8617 4.59771 11.4161 5.59202 12.632L9.49604 17.4068C9.54852 17.471 9.61463 17.5228 9.68957 17.5583C9.76452 17.5939 9.84643 17.6123 9.92937 17.6123C10.0123 17.6123 10.0942 17.5939 10.1692 17.5583C10.2441 17.5228 10.3102 17.471 10.3627 17.4068L14.2667 12.632C15.2605 11.4158 15.7434 9.86148 15.614 8.29629C15.4999 6.91329 14.8699 5.62375 13.8491 4.68369C12.8283 3.74363 11.4914 3.2218 10.1037 3.22179H9.75262Z" fill="#666666"/>
</svg>