<svg xmlns="http://www.w3.org/2000/svg" width="58" height="47" viewBox="0 0 58 47" fill="none">
<path d="M6.46375 37.5077L25.7463 6.65973C27.6709 3.58071 32.1538 3.57668 34.0839 6.65224L53.5556 37.6788C55.3331 40.5111 53.4312 44.2135 50.0936 44.4182V44.4182C48.4807 44.5172 46.9431 43.7252 46.0871 42.3547L34.1553 23.2513C32.2271 20.1642 27.7302 20.1677 25.8069 23.2579L16.8802 37.6009C15.0926 40.4732 17.0241 44.2127 20.401 44.4173V44.4173C22.0419 44.5168 23.6047 43.7065 24.4692 42.3082L27.2467 37.8151L27.4312 37.5077" stroke="#F51B41" stroke-width="4.91904" stroke-linecap="round" stroke-linejoin="round"/>
<circle cx="2.95952" cy="43.0415" r="2.45952" fill="#F51B41"/>
<circle cx="29.9532" cy="31.3586" r="2.45952" fill="#F51B41"/>
</svg>