<svg xmlns="http://www.w3.org/2000/svg" width="77" height="64" viewBox="0 0 53 44" fill="none">
<path d="M5.48539 34.8804L23.2204 6.50807C24.9906 3.67616 29.1137 3.67245 30.889 6.50119L48.7979 35.0377C50.4328 37.6428 48.6836 41.048 45.6138 41.2363V41.2363C44.1304 41.3273 42.7161 40.5989 41.9288 39.3384L30.9546 21.7681C29.1811 18.9287 25.0451 18.932 23.2762 21.7742L15.0659 34.9661C13.4217 37.6079 15.1982 41.0472 18.3041 41.2355V41.2355C19.8133 41.3269 21.2508 40.5817 22.0458 39.2956L24.6004 35.1631L24.7701 34.8804" stroke="white" stroke-width="4.52427" stroke-linecap="round" stroke-linejoin="round"/>
<circle cx="2.26213" cy="39.9711" r="2.04669" fill="white" stroke="white" stroke-width="0.430883"/>
<circle cx="27.0883" cy="29.225" r="2.04669" fill="white" stroke="white" stroke-width="0.430883"/>
</svg>