<svg xmlns="http://www.w3.org/2000/svg" width="77" height="64" viewBox="0 0 77 64" fill="none">
<path d="M8.0563 51.2308L34.1046 9.55896C36.7046 5.39958 42.7604 5.39416 45.3678 9.54886L71.6716 51.4619C74.0728 55.2881 71.5036 60.2895 66.9949 60.5661V60.5661C64.8161 60.6998 62.739 59.6299 61.5826 57.7785L45.4642 31.9722C42.8594 27.8018 36.7847 27.8066 34.1866 31.9811L22.1276 51.3568C19.7128 55.2368 22.322 60.2884 26.8838 60.5648V60.5648C29.1005 60.6992 31.2117 59.6046 32.3794 57.7157L36.1315 51.6461L36.3807 51.2308" stroke="#F51B41" stroke-width="6.64502" stroke-linecap="round" stroke-linejoin="round"/>
<circle cx="3.32251" cy="58.7053" r="3.32251" fill="#F51B41"/>
<circle cx="39.7874" cy="42.9241" r="3.32251" fill="#F51B41"/>
</svg>