<svg width="34" height="34" viewBox="0 0 34 34" fill="none" xmlns="http://www.w3.org/2000/svg">
<g id="majesticons:mail">
<path id="Vector" fill-rule="evenodd" clip-rule="evenodd" d="M7.375 28.0352C6.28098 28.0352 5.23177 27.6006 4.45818 26.827C3.6846 26.0534 3.25 25.0042 3.25 23.9102V10.1602C3.25 9.06614 3.6846 8.01693 4.45818 7.24334C5.23177 6.46975 6.28098 6.03516 7.375 6.03516H26.625C27.719 6.03516 28.7682 6.46975 29.5418 7.24334C30.3154 8.01693 30.75 9.06614 30.75 10.1602V23.9102C30.75 25.0042 30.3154 26.0534 29.5418 26.827C28.7682 27.6006 27.719 28.0352 26.625 28.0352H7.375ZM10.9844 11.8377C10.8443 11.7181 10.6816 11.6278 10.506 11.5723C10.3304 11.5168 10.1454 11.4971 9.96208 11.5144C9.77871 11.5317 9.6007 11.5857 9.43861 11.6732C9.27651 11.7607 9.13364 11.8798 9.01847 12.0235C8.9033 12.1672 8.81818 12.3327 8.76817 12.5099C8.71815 12.6872 8.70425 12.8727 8.72731 13.0554C8.75036 13.2381 8.80989 13.4144 8.90236 13.5737C8.99484 13.7329 9.11837 13.872 9.26562 13.9827L14.4219 18.109C15.1535 18.6948 16.0628 19.014 17 19.014C17.9372 19.014 18.8465 18.6948 19.5781 18.109L24.7344 13.984C24.8754 13.8712 24.9928 13.7317 25.0799 13.5734C25.167 13.4152 25.2221 13.2413 25.242 13.0618C25.2619 12.8823 25.2463 12.7006 25.196 12.5272C25.1457 12.3537 25.0617 12.1918 24.9489 12.0508C24.836 11.9098 24.6965 11.7923 24.5383 11.7052C24.38 11.6181 24.2062 11.5631 24.0267 11.5431C23.8472 11.5232 23.6655 11.5389 23.492 11.5892C23.3185 11.6395 23.1566 11.7234 23.0156 11.8363L17.8594 15.9613C17.6155 16.1565 17.3124 16.2629 17 16.2629C16.6876 16.2629 16.3845 16.1565 16.1406 15.9613L10.9844 11.8377Z" fill="#FBBC05"/>
</g>
</svg>
