<svg xmlns="http://www.w3.org/2000/svg" width="67" height="43" viewBox="0 0 67 43" fill="none">
  <path d="M66.1481 28.352C66.1481 30.3762 65.7486 32.2671 64.9496 34.0249C64.2038 35.7828 63.1651 37.3275 61.8335 38.6592C60.555 39.9376 59.0103 40.9763 57.1992 41.7753C55.4414 42.521 53.5771 42.8939 51.6062 42.8939C49.582 42.8939 47.6911 42.521 45.9332 41.7753C44.1754 41.0296 42.6307 39.9909 41.299 38.6592C39.9673 37.3275 38.9286 35.7828 38.1829 34.0249C37.4371 32.2671 37.0643 30.3762 37.0643 28.352C37.0643 25.9017 37.3839 23.3982 38.0231 20.8414C38.6623 18.2845 39.5412 15.8076 40.6598 13.4106C41.8317 10.9603 43.19 8.66983 44.7347 6.53915C46.2795 4.3552 47.9574 2.46422 49.7685 0.866211L61.2742 6.85875C60.1555 7.76429 59.0103 8.90954 57.8384 10.2945C56.7198 11.6262 56.054 13.0111 55.8409 14.4493C57.3324 14.9287 58.7173 15.6212 59.9957 16.5267C61.2741 17.4323 62.3661 18.4976 63.2717 19.7227C64.1772 20.9479 64.8697 22.3062 65.3491 23.7977C65.8817 25.2359 66.1481 26.754 66.1481 28.352ZM29.1541 28.352C29.1541 30.3762 28.7546 32.2671 27.9556 34.0249C27.2099 35.7828 26.1712 37.3275 24.8395 38.6592C23.5611 39.9376 22.0163 40.9763 20.2053 41.7753C18.4474 42.521 16.5831 42.8939 14.6122 42.8939C12.5881 42.8939 10.6971 42.521 8.93928 41.7753C7.18146 41.0296 5.63672 39.9909 4.30504 38.6592C2.97337 37.3275 1.93466 35.7828 1.18892 34.0249C0.443182 32.2671 0.0703125 30.3762 0.0703125 28.352C0.0703125 25.9017 0.389915 23.3982 1.02912 20.8414C1.66832 18.2845 2.54723 15.8076 3.66584 13.4106C4.83771 10.9603 6.19602 8.66983 7.74077 6.53915C9.28551 4.3552 10.9634 2.46422 12.7745 0.866211L24.2802 6.85875C23.1616 7.76429 22.0163 8.90954 20.8445 10.2945C19.7259 11.6262 19.06 13.0111 18.8469 14.4493C20.3384 14.9287 21.7234 15.6212 23.0018 16.5267C24.2802 17.4323 25.3722 18.4976 26.2777 19.7227C27.1832 20.9479 27.8757 22.3062 28.3551 23.7977C28.8878 25.2359 29.1541 26.754 29.1541 28.352Z" fill="#999999"/>
</svg>