<svg width="195" height="180" viewBox="0 0 195 180" fill="none" xmlns="http://www.w3.org/2000/svg">
<g clip-path="url(#clip0_2366_713)">
<path d="M105.746 152.126C143.187 152.126 173.539 121.774 173.539 84.3328C173.539 46.8919 143.187 16.54 105.746 16.54C68.305 16.54 37.9531 46.8919 37.9531 84.3328C37.9531 121.774 68.305 152.126 105.746 152.126Z" fill="#999999" fill-opacity="0.2"/>
<path d="M93.1526 113.393C94.4249 113.256 95.5382 113.14 96.6514 113.01C99.7599 112.641 102.868 112.619 105.984 112.836C110.372 113.147 114.709 113.834 118.996 114.81C119.119 114.839 119.249 114.86 119.372 114.889C119.683 114.976 119.827 114.853 119.914 114.542C120.153 113.733 120.42 112.937 120.68 112.135C122.856 105.47 127.273 100.88 133.606 97.9953C137.712 96.123 141.991 95.5085 146.451 95.8122C147.29 95.87 148.114 95.9857 148.982 96.1592C149.083 95.111 149.206 94.0989 149.271 93.0796C149.553 88.7351 150.767 84.6507 152.632 80.7399C153.08 79.7929 153.5 78.8387 153.861 77.8483C155.061 74.5302 154.982 71.2339 153.688 67.9736C152.907 66.0146 151.541 64.4531 150.03 63.0218C147.572 60.6941 144.529 59.458 141.362 58.4821C138.738 57.6724 136.035 57.2893 133.324 56.964C130.765 56.6604 128.206 56.3423 125.639 56.1037C123.63 55.9158 121.613 55.7929 119.603 55.7351C115.006 55.5977 110.408 55.5977 105.81 55.7351C102.666 55.829 99.5285 56.0531 96.4924 56.9423C94.1791 57.6218 91.9382 58.4965 90.1237 60.1592C86.8635 63.1302 85.2514 66.8242 85.3454 71.2555C85.4177 74.6676 86.2924 77.9134 87.3334 81.1302C88.0273 83.27 88.8442 85.3592 89.3213 87.564C89.6538 89.111 89.9575 90.6652 90.037 92.2555C90.0514 92.5086 90.0514 92.7688 90.037 93.0218C90.0081 93.3688 89.8201 93.5929 89.4587 93.629C89.1044 93.6652 88.837 93.47 88.7719 93.0652C88.6779 92.458 88.6562 91.8435 88.5623 91.2435C88.1575 88.5833 87.449 86.0025 86.5526 83.4724C85.5117 80.5302 84.6153 77.5519 84.1237 74.4652C83.4225 70.0772 83.9575 65.9134 86.4659 62.1254C88.0418 59.7399 90.1165 57.9688 92.7189 56.7688C95.6394 55.4242 98.7117 54.7592 101.892 54.5061C108.037 54.0146 114.196 54.1086 120.348 54.2965C126.073 54.47 131.748 55.2074 137.408 56.0459C140.683 56.5302 143.82 57.5423 146.791 58.9953C149.798 60.47 152.213 62.6459 154.035 65.4363C155.798 68.1399 156.391 71.1616 156.167 74.364C156.023 76.4604 155.357 78.4049 154.504 80.3061C154.013 81.3977 153.543 82.5037 153.059 83.6025C151.635 86.7977 151.042 90.1736 150.745 93.629C150.673 94.4676 150.644 95.3134 150.557 96.1519C150.521 96.5423 150.651 96.7519 151.027 96.8965C151.837 97.2073 152.582 97.6628 153.312 98.1327C155.842 99.7592 157.989 103.713 156.326 107.884C155.719 109.417 154.837 110.79 153.724 112.012C153.478 112.287 153.333 112.583 153.218 112.93C152.227 115.909 151.208 118.88 150.21 121.851C148.765 126.159 147.232 130.439 146.076 134.834C145.41 137.378 144.839 139.945 144.341 142.525C143.827 145.2 143.95 147.846 144.5 150.506C145.071 153.282 145.519 156.08 145.671 158.921C145.707 159.658 145.707 160.403 145.519 161.125C145.309 161.928 144.969 162.643 144.08 162.839C143.184 163.041 142.497 162.6 141.933 161.942C141.514 161.451 141.247 160.872 141.037 160.265C140.379 158.4 140.061 156.463 139.7 154.533C139.569 153.831 139.447 153.123 139.194 152.451C138.897 151.648 138.543 151.468 137.719 151.684C137.148 151.836 136.62 152.104 136.114 152.4C133.259 154.048 130.295 155.472 127.244 156.723C127.035 156.81 126.825 156.918 126.586 156.911C126.304 156.911 126.102 156.781 125.986 156.521C125.871 156.253 125.943 156.007 126.145 155.827C126.297 155.697 126.478 155.595 126.666 155.516C129.796 154.128 132.825 152.545 135.818 150.882C136.353 150.586 136.916 150.347 137.516 150.203C138.868 149.884 139.88 150.376 140.459 151.634C140.885 152.574 141.037 153.586 141.218 154.59C141.514 156.195 141.796 157.807 142.295 159.369C142.447 159.853 142.62 160.337 142.902 160.771C143.047 160.988 143.206 161.19 143.437 161.306C143.654 161.415 143.835 161.378 143.943 161.147C144.088 160.843 144.138 160.518 144.16 160.178C144.247 158.819 144.08 157.475 143.914 156.13C143.625 153.875 143.235 151.641 142.794 149.407C142.345 147.145 142.439 144.889 142.823 142.627C143.885 136.446 145.671 130.46 147.724 124.54C148.75 121.576 149.748 118.598 150.76 115.627C150.839 115.395 150.912 115.164 150.991 114.933C150.81 114.875 150.738 114.947 150.659 115.005C147.738 117.166 144.478 118.67 141.116 119.986C139.902 120.463 138.666 120.875 137.401 121.171C136.895 121.287 136.649 121.533 136.512 122.046C134.668 128.87 132.55 135.622 130.483 142.381C130.035 143.848 129.514 145.287 128.914 146.697C127.794 149.342 126.138 151.562 123.753 153.21C123.203 153.586 122.668 153.983 122.198 154.453C121.765 154.894 121.396 155.378 121.179 155.971C121.02 156.412 121.078 156.499 121.548 156.557C122.184 156.636 122.806 156.774 123.398 157.019C124.844 157.619 125.618 158.689 125.625 160.272C125.625 161.342 125.632 162.419 125.625 163.489C125.596 166.352 125.401 169.2 124.989 172.041C124.902 172.648 124.772 173.248 124.504 173.805C123.933 175.005 122.726 175.092 121.974 173.993C121.678 173.566 121.541 173.075 121.432 172.569C121.071 170.913 120.969 169.229 120.861 167.552C120.666 164.545 120.384 161.545 120.044 158.552C119.986 158.01 119.979 157.995 119.43 158.046C117.854 158.198 116.3 158.509 114.738 158.769C111.377 159.325 107.994 159.513 104.589 159.383C103.157 159.325 101.733 159.26 100.302 159.217C97.7719 159.13 95.2707 158.776 92.7695 158.378C89.2924 157.829 85.8081 157.28 82.3888 156.441C78.796 155.566 75.2249 154.583 71.755 153.289C71.0611 153.029 71.1478 152.935 70.7864 153.658C69.7165 155.776 68.6828 157.916 67.6273 160.041C66.955 161.386 66.2249 162.709 65.4442 163.995C65.0321 164.675 64.5984 165.34 64.0129 165.882C63.4924 166.366 62.8996 166.742 62.1478 166.417C61.3743 166.077 61.208 165.398 61.2297 164.639C61.2514 163.735 61.4683 162.868 61.7574 162.022C62.6972 159.268 63.8394 156.586 64.9237 153.889C65.3791 152.754 65.8418 151.619 66.2466 150.463C67.0273 148.222 67.0562 145.966 66.5068 143.675C65.9213 141.239 65.0828 138.882 64.3599 136.482C63.4418 133.424 62.6683 130.33 62.2273 127.164C62.0394 125.798 61.9165 124.424 61.8731 123.044C61.808 121.048 61.396 119.162 60.5141 117.354C59.7334 115.75 58.9599 114.137 58.5478 112.381C58.1647 110.725 58.0635 109.056 58.2803 107.364C58.7647 103.475 61.8153 101.306 64.9888 100.981C65.4659 100.93 65.8635 100.793 66.2466 100.518C70.2153 97.7278 74.596 95.9351 79.396 95.1905C81.4707 94.8652 83.5599 94.7351 85.6562 94.9736C89.4081 95.4074 92.0105 97.4242 93.6008 100.807C94.7213 103.186 94.9743 105.701 94.7285 108.289C94.555 110.031 94.1213 111.701 93.196 113.393H93.1526ZM137.198 119.639C137.459 119.675 137.625 119.61 137.798 119.566C139.085 119.234 140.321 118.757 141.55 118.251C145.345 116.689 148.989 114.875 151.902 111.86C153.138 110.581 154.172 109.164 154.866 107.523C156.153 104.465 155.097 101.068 152.321 99.2459C150.962 98.3495 149.488 97.6917 147.883 97.4459C145.345 97.0628 142.794 97.1278 140.249 97.4893C137.48 97.8796 134.921 98.87 132.478 100.186C128.155 102.506 124.873 105.817 122.921 110.378C121.772 113.068 120.977 115.858 120.355 118.706C119.394 123.123 118.447 127.54 117.153 131.87C116.61 133.684 115.953 135.456 115.092 137.14C113.148 140.935 110.126 143.364 105.926 144.253C104.321 144.593 102.688 144.709 101.054 144.73C96.1599 144.788 91.3165 144.34 86.5165 143.386C84.0514 142.894 81.6659 142.157 79.4538 140.95C76.584 139.388 74.437 137.183 73.5117 133.974C72.9478 132.036 72.6008 130.041 72.5068 128.024C72.355 124.684 72.1454 121.345 72.1815 117.99C72.1815 117.824 72.2466 117.636 72.0659 117.463C71.8562 117.463 71.7261 117.636 71.5599 117.737C71.0105 118.084 70.4321 118.33 69.7888 118.431C68.155 118.677 66.6876 118.222 65.3936 117.275C60.7815 113.892 60.3623 107.328 63.1093 103.417C63.2032 103.287 63.3767 103.186 63.3044 102.904C61.649 103.619 60.4635 104.725 59.9647 106.46C59.4587 108.217 59.5309 109.995 59.8996 111.766C60.2538 113.487 60.9984 115.056 61.7719 116.61C62.8056 118.692 63.2683 120.882 63.3334 123.188C63.3695 124.59 63.5141 125.993 63.7237 127.381C64.1864 130.439 64.9454 133.431 65.849 136.388C66.5936 138.831 67.4755 141.231 67.996 143.733C68.2852 145.113 68.4442 146.501 68.2924 147.918C68.1117 149.617 67.5623 151.2 66.9478 152.769C65.8346 155.595 64.6924 158.407 63.5791 161.234C63.2466 162.065 62.9647 162.911 62.7984 163.793C62.7334 164.147 62.6394 164.509 62.7767 164.892C63.1237 164.754 63.2611 164.494 63.4346 164.277C64.0056 163.554 64.4466 162.745 64.9093 161.95C66.29 159.528 67.4466 156.998 68.6755 154.497C69.0442 153.737 69.4346 152.993 69.8466 152.256C70.2587 151.511 70.6056 151.41 71.4297 151.713C71.9574 151.909 72.4852 152.104 73.0129 152.277C75.8538 153.21 78.7237 154.048 81.6225 154.728C88.7647 156.39 95.9719 157.684 103.338 157.88C106.28 157.959 109.215 158.01 112.136 157.634C114.543 157.323 116.929 156.918 119.329 156.571C119.61 156.528 119.712 156.398 119.762 156.137C119.979 154.93 120.659 153.99 121.526 153.159C122.068 152.646 122.661 152.205 123.261 151.771C125.054 150.456 126.362 148.75 127.295 146.747C128.01 145.215 128.574 143.631 129.066 142.019C130.851 136.164 132.688 130.316 134.336 124.417C134.574 123.557 134.82 122.704 135.066 121.829C134.661 121.706 134.314 121.807 133.967 121.851C132.565 122.031 131.155 122.118 129.774 121.764C126.362 120.882 124.526 118.945 124.129 115.872C123.796 113.277 124.085 110.704 125.242 108.318C126.492 105.723 128.495 104.111 131.488 103.93C135.586 103.684 137.618 106.164 138.247 108.86C138.42 109.605 138.485 110.371 138.5 111.137C138.55 113.639 138.03 116.06 137.451 118.468C137.365 118.829 137.198 119.183 137.227 119.624L137.198 119.639ZM119.401 116.284C119.097 116.212 118.851 116.154 118.606 116.104C116.076 115.612 113.531 115.215 110.979 114.824C105.051 113.913 99.1309 113.95 93.2105 114.875C92.8562 114.933 92.6105 115.063 92.3936 115.359C90.7165 117.6 88.7502 119.559 86.4803 121.207C84.6297 122.545 82.6852 123.701 80.5093 124.424C79.8731 124.641 79.2225 124.742 78.5502 124.699C77.1767 124.605 76.4466 123.564 76.837 122.241C76.9671 121.793 77.1984 121.395 77.4731 121.027C78.0442 120.268 78.7454 119.639 79.5117 119.075C82.8081 116.66 86.502 115.084 90.4273 114.036C91.1502 113.841 91.555 113.48 91.8876 112.858C93.0442 110.718 93.2972 108.405 93.2538 106.027C93.2249 104.4 92.8707 102.839 92.1695 101.364C90.9117 98.7254 88.9309 97.0049 85.9888 96.5278C84.4924 96.282 82.9888 96.3037 81.4852 96.4411C76.743 96.8676 72.3623 98.3278 68.343 100.887C68.2056 100.974 68.0321 101.024 67.9815 101.205C68.0321 101.248 68.0466 101.277 68.0683 101.284C68.2346 101.35 68.4008 101.407 68.5671 101.472C70.3671 102.159 71.8273 103.294 72.8466 104.913C74.6972 107.848 75.1743 111 73.9815 114.289C73.6273 115.265 73.5695 116.212 73.584 117.21C73.6129 120.275 73.7574 123.333 73.8659 126.398C73.9382 128.443 74.2056 130.46 74.6032 132.47C75.2177 135.586 76.996 137.834 79.6779 139.417C81.1743 140.299 82.7864 140.964 84.4707 141.405C87.5647 142.222 90.7165 142.706 93.8972 142.988C97.2587 143.292 100.627 143.422 103.996 143.082C108.586 142.619 111.926 140.357 113.95 136.186C114.651 134.733 115.237 133.236 115.7 131.697C117.218 126.658 118.251 121.504 119.408 116.284H119.401ZM137.039 111.593C137.068 110.877 136.982 110.162 136.851 109.46C136.548 107.776 135.724 106.424 134.104 105.759C132.435 105.072 129.5 105.116 127.765 107.125C127.143 107.848 126.608 108.615 126.276 109.511C125.603 111.282 125.372 113.133 125.466 114.998C125.61 117.882 127.15 119.783 130.504 120.441C132.066 120.745 133.606 120.441 135.138 120.231C135.449 120.188 135.55 119.971 135.615 119.711C135.767 119.118 135.926 118.525 136.063 117.933C136.569 115.851 136.982 113.754 137.039 111.6V111.593ZM73.1358 110.95C73.1358 109.229 72.7237 107.718 71.943 106.301C70.8225 104.256 69.1237 102.99 66.8177 102.535C66.2828 102.427 65.9068 102.557 65.5093 102.925C63.1093 105.159 62.4876 107.942 63.0803 111.043C63.4707 113.089 64.5189 114.788 66.2105 116.06C66.9478 116.61 67.7864 116.935 68.6828 117.007C70.237 117.137 71.3068 116.328 72.0442 115.034C72.7743 113.74 73.0779 112.323 73.1285 110.957L73.1358 110.95ZM90.1743 115.713C90.0803 115.641 89.9791 115.663 89.8852 115.692C86.3864 116.74 83.0972 118.222 80.155 120.419C79.6201 120.817 79.143 121.272 78.7165 121.793C78.5213 122.031 78.355 122.292 78.2466 122.581C78.0948 123.015 78.2105 123.21 78.6659 123.268C78.8683 123.289 79.0707 123.268 79.2731 123.239C79.9382 123.152 80.5599 122.906 81.1671 122.639C84.6081 121.106 87.5141 118.865 89.9936 116.039C90.0731 115.945 90.1743 115.858 90.1743 115.721V115.713ZM123.167 172.966C123.442 172.417 123.471 171.86 123.55 171.311C123.912 168.831 124.013 166.337 124.114 163.836C124.165 162.636 124.172 161.436 124.179 160.236C124.179 159.839 124.172 159.412 123.825 159.109C123.304 158.646 122.719 158.292 122.025 158.154C121.504 158.053 121.454 158.089 121.519 158.631C121.88 161.877 122.155 165.13 122.372 168.383C122.451 169.576 122.545 170.776 122.784 171.954C122.856 172.294 122.871 172.656 123.16 172.959L123.167 172.966Z" fill="#121212"/>
<path d="M30.088 107.798C29.929 107.133 29.4808 106.699 28.9242 106.367C28.4398 106.07 27.8904 105.947 27.3338 105.839C26.0543 105.593 24.7531 105.514 23.4519 105.412C20.6037 105.196 17.7483 105 14.9001 104.769C13.729 104.675 12.5651 104.516 11.4374 104.162C10.57 103.894 9.78201 103.49 9.10249 102.89C7.98924 101.914 7.64225 100.728 8.09767 99.3041C8.62538 97.6269 9.73141 96.4414 11.1844 95.545C13.3386 94.2077 15.7025 93.4414 18.182 92.9571C21.8904 92.2342 25.635 92.1185 29.3941 92.133C35.1194 92.1547 40.7507 92.8631 46.2808 94.345C47.6398 94.7065 48.9772 95.1257 50.2206 95.8053C50.8061 96.1233 51.37 96.4776 51.8688 96.9185C53.9218 98.7113 54.2109 101.574 52.541 103.735C51.7459 104.762 50.7194 105.514 49.5989 106.15C47.9362 107.09 46.1145 107.603 44.2639 107.979C40.4832 108.752 36.6519 109.172 32.7916 109.345C32.7121 109.345 32.6398 109.352 32.5603 109.345C32.2422 109.323 32.0977 109.425 32.1555 109.786C32.2278 110.212 32.2206 110.653 32.2639 111.08C32.4736 113.147 32.2929 115.215 32.1627 117.275C32.0182 119.465 31.8519 121.656 31.7362 123.846C31.476 128.87 31.5049 133.902 31.4615 138.933C31.4615 139.164 31.4688 139.396 31.4326 139.62C31.3603 140.017 31.035 140.278 30.6808 140.249C30.341 140.227 30.1025 139.988 30.0374 139.598C30.0157 139.475 30.0157 139.345 30.0157 139.215C30.0663 134.263 29.9941 129.304 30.2471 124.352C30.3844 121.699 30.6157 119.053 30.7675 116.408C30.8904 114.239 30.97 112.07 30.7025 109.902C30.6591 109.576 30.6302 109.323 30.1892 109.309C27.97 109.266 25.7507 109.237 23.5459 109.649C21.2615 110.082 19.4398 111.275 17.9579 113.025C16.2808 115.012 15.0591 117.282 13.9314 119.603C12.0085 123.55 10.4471 127.656 8.62538 131.653C7.79406 133.49 7.00611 135.347 6.19647 137.191C6.00852 137.625 5.71936 137.784 5.37237 137.668C5.04707 137.559 4.86635 137.198 4.96755 136.779C5.03984 136.482 5.16996 136.2 5.2784 135.919C6.81815 131.972 8.63261 128.14 10.2591 124.222C11.329 121.649 12.4784 119.119 13.8013 116.668C14.5892 115.2 15.4784 113.805 16.5049 112.497C18.688 109.692 21.5579 108.21 25.0929 107.943C26.5459 107.834 27.9989 107.762 29.4519 107.82C29.6543 107.827 29.8639 107.863 30.088 107.755V107.798ZM28.9242 93.5932C24.0808 93.5932 21.5145 93.7956 17.9218 94.5041C15.8037 94.9233 13.7941 95.6462 11.9435 96.7812C10.9025 97.4245 10.0423 98.2414 9.59406 99.4197C9.12418 100.641 9.3555 101.372 10.4471 102.109C11.2929 102.68 12.2471 102.933 13.2374 103.092C15.435 103.446 17.6615 103.511 19.8736 103.699C22.2374 103.894 24.6157 103.988 26.9724 104.299C29.1049 104.581 30.8615 105.362 31.635 107.567C31.729 107.827 31.9169 107.906 32.17 107.892C32.423 107.878 32.6832 107.878 32.9362 107.878C35.4663 107.812 37.9748 107.502 40.4832 107.169C42.5868 106.887 44.6688 106.504 46.6856 105.839C48.3338 105.297 49.8374 104.509 51.0519 103.244C52.0928 102.152 52.4398 100.88 51.9266 99.4342C51.6013 98.5233 50.9073 97.9233 50.1121 97.4318C48.9555 96.7089 47.6832 96.2534 46.3748 95.892C40.5555 94.28 34.6206 93.5498 28.9242 93.5932Z" fill="#121212"/>
<path d="M53.4301 136.59C53.4445 137.031 53.2566 137.32 52.9385 137.414C52.606 137.508 52.2951 137.378 52.1072 137.031C52.0276 136.879 51.977 136.698 51.9337 136.525C50.2638 130.127 48.3481 123.802 46.7433 117.383C46.1939 115.178 45.6662 112.966 45.1313 110.761C45.1096 110.66 45.0807 110.559 45.0734 110.457C45.0445 110.045 45.218 109.756 45.5433 109.691C45.8975 109.619 46.1433 109.792 46.2807 110.096C46.3746 110.306 46.4252 110.53 46.4831 110.754C47.9289 116.045 49.2228 121.38 50.7337 126.657C51.6156 129.751 52.4325 132.86 53.271 135.968C53.3289 136.192 53.3795 136.416 53.4228 136.59H53.4301Z" fill="#121212"/>
<path d="M123.254 12.1449C123.254 12.2316 123.225 12.3111 123.247 12.3762C123.63 14.1834 123.688 16.0196 123.789 17.8557C123.919 20.2485 123.673 22.5979 123.29 24.94C122.979 26.834 122.242 28.5617 120.883 29.9786C120.76 30.1087 120.652 30.2605 120.507 30.3617C119.278 31.2147 117.984 31.8653 116.444 31.981C114.073 32.1545 111.839 31.6991 109.649 30.8027C106.967 29.6967 104.488 28.2437 102.131 26.5665C101.343 26.0099 100.656 25.3159 99.9118 24.6726C99.4708 24.8822 99.1021 25.2003 98.7407 25.5184C97.7358 26.3858 96.6371 27.1304 95.5744 27.9184C94.3455 28.8292 93.1383 29.7617 91.8515 30.6003C90.9118 31.2075 89.9503 31.7931 89.0611 32.4798C88.8587 32.6388 88.6346 32.7545 88.3599 32.7545C87.8033 32.7545 87.5286 32.3208 87.7599 31.8147C87.8756 31.5617 88.0853 31.4316 88.3093 31.3015C89.7913 30.3979 91.1864 29.3641 92.5383 28.287C93.2539 27.7159 94.0419 27.2388 94.7792 26.6894C96.0226 25.7497 97.1937 24.7232 98.4949 23.8629C98.6033 23.7906 98.6901 23.7039 98.7768 23.6099C98.8997 23.487 98.9286 23.3786 98.7913 23.2196C98.213 22.5256 97.8732 21.7015 97.5479 20.8629C97.0346 19.5473 97.1142 18.2533 97.6057 16.981C98.0033 15.9473 98.6178 15.0437 99.3985 14.2485C100.62 12.9906 102.066 12.0364 103.598 11.2196C104.856 10.5473 106.172 9.99064 107.473 9.4051C108.76 8.82678 110.112 8.46534 111.435 8.01714C112.15 7.77136 112.931 7.69907 113.705 7.88702C114.782 8.15449 115.244 8.94967 114.941 10.0196C114.644 11.0605 113.936 11.8485 113.285 12.6581C112.815 13.2581 112.259 13.793 111.717 14.328C110.256 15.7521 108.774 17.1617 107.235 18.4991C105.5 19.9955 103.75 21.4846 102.001 22.9738C101.733 23.2051 101.43 23.4003 101.126 23.6316C102.225 24.8605 103.519 25.8003 104.892 26.6244C105.854 27.2027 106.808 27.7955 107.813 28.3015C109.411 29.1184 111.059 29.7906 112.794 30.2533C114.377 30.6726 115.967 30.7232 117.558 30.2822C119.177 29.834 120.232 28.7569 120.962 27.3039C121.613 26.0099 121.917 24.6075 122.076 23.1834C122.365 20.6171 122.48 18.0509 122.155 15.4702C122.032 14.5087 122.011 13.5328 121.801 12.5858C121.707 12.1376 121.584 11.6967 121.49 11.2485C121.447 11.0171 121.295 10.9015 121.114 10.793C119.994 10.128 118.938 9.36172 117.89 8.59546C117.102 8.01714 116.386 7.35208 115.779 6.60751C114.456 4.981 114.586 3.11594 116.206 1.62678C117.717 0.231602 119.48 -0.339483 121.497 0.282204C123.117 0.780999 124.273 1.78582 124.642 3.51353C124.823 4.37377 124.7 5.23401 124.454 6.08702C124.136 7.20751 123.565 8.19787 123.001 9.20269C122.618 9.8822 122.611 9.88221 123.297 10.3087C125.141 11.4509 127.085 12.4268 128.994 13.4461C130.707 14.3569 132.442 15.2244 134.133 16.1714C137.343 17.9569 140.531 19.7931 143.733 21.5858C146.806 23.3063 149.9 24.9834 152.972 26.7111C154.505 27.5786 156.008 28.4967 157.505 29.4147C161.35 31.7858 165.268 34.0412 169.302 36.0726C172.172 37.5256 175.129 38.7979 178.215 39.7232C179.661 40.1569 179.625 40.287 179.712 38.6461C179.791 37.1352 180.189 35.6822 181.165 34.5256C182.495 32.9424 184.714 32.7545 186.131 34.6774C188.264 37.5762 186.095 40.7208 183.796 41.3931C183.023 41.6171 182.264 41.769 181.468 41.7617C181.1 41.7617 180.97 41.8918 180.984 42.2533C181.035 43.6051 181.064 44.9569 181.1 46.3159C181.1 46.4967 181.136 46.6702 181.136 46.8509C181.158 49.7063 181.158 52.569 181.208 55.4244C181.273 58.9738 181.28 62.5232 181.324 66.0653C181.338 67.3159 181.331 68.5666 181.36 69.8099C181.403 71.8485 181.367 73.8943 181.49 75.9328C181.584 77.5666 181.519 79.2003 181.635 80.8268C181.758 82.4605 181.678 84.0943 181.786 85.7208C181.888 87.181 181.786 88.6268 181.786 90.0798C181.779 92.1473 181.656 94.2147 181.649 96.275C181.649 98.1111 181.49 99.9473 181.505 101.776C181.526 103.641 181.353 105.499 181.353 107.357C181.353 108.738 181.201 110.104 181.165 111.477C181.092 114.21 180.811 116.928 180.594 119.646C180.435 121.677 180.066 123.694 179.639 125.689C179.394 126.846 179.141 126.694 180.435 127.048C182.611 127.641 184.707 128.436 186.615 129.658C187.432 130.179 188.213 130.757 188.979 131.35C190.15 132.261 191.292 133.208 192.341 134.248C193.172 135.073 193.96 135.962 194.401 137.075C194.726 137.899 194.517 138.232 193.649 138.456C192.341 138.795 191.003 138.976 189.666 139.171C186.102 139.685 182.502 139.844 178.917 140.104C178.36 140.147 177.796 140.154 177.232 140.169C175.013 140.234 172.794 140.335 170.574 140.386C168.861 140.422 167.162 140.285 165.456 140.248C162.709 140.191 160.035 139.627 157.331 139.28C156.926 139.229 156.529 139.121 156.16 138.933C155.827 138.767 155.697 138.456 155.784 138.101C155.871 137.762 156.102 137.581 156.449 137.574C156.652 137.574 156.861 137.595 157.056 137.639C160.273 138.398 163.555 138.701 166.844 138.846C170.415 138.998 173.986 138.853 177.558 138.629C178.064 138.6 178.577 138.571 179.09 138.564C181.158 138.55 183.218 138.34 185.271 138.145C187.454 137.935 189.652 137.841 191.813 137.422C192.102 137.364 192.399 137.299 192.753 137.22C192.427 136.627 192.08 136.128 191.654 135.694C189.406 133.359 186.883 131.393 183.984 129.926C182.567 129.21 181.071 128.704 179.538 128.299C179.083 128.183 178.974 128.357 178.837 128.711C178.309 130.07 177.695 131.379 176.813 132.557C175.801 133.901 174.601 135.008 173.206 135.933C171.97 136.75 170.589 137.075 169.179 137.256C167.741 137.444 166.345 137.046 165.182 136.215C164.047 135.398 163.439 134.234 163.779 132.752C163.96 131.971 164.249 131.241 164.741 130.605C165.514 129.608 166.411 128.783 167.531 128.147C170.097 126.68 172.866 126.181 175.765 126.253C176.3 126.268 176.835 126.354 177.362 126.405C177.955 126.463 177.962 126.463 178.114 125.856C178.432 124.591 178.627 123.311 178.772 122.01C178.953 120.311 179.264 118.62 179.343 116.914C179.459 114.47 179.755 112.034 179.762 109.576C179.762 108.304 179.958 107.024 179.936 105.752C179.907 103.612 180.153 101.473 180.066 99.3328C180.044 98.6967 180.131 98.0605 180.153 97.4171C180.218 94.9665 180.297 92.5159 180.326 90.0653C180.355 88.2003 180.398 86.3352 180.29 84.4774C180.203 82.8437 180.276 81.2099 180.145 79.5834C180.023 78.0003 180.088 76.4172 180.008 74.8412C179.835 71.4726 179.892 68.1039 179.835 64.7424C179.806 63.0581 179.885 61.3738 179.82 59.6894C179.69 56.3208 179.762 52.9521 179.668 49.5834C179.596 47.0822 179.668 44.581 179.582 42.087C179.567 41.6316 179.43 41.4726 179.003 41.3786C175.758 40.6918 172.758 39.3473 169.772 37.9449C166.765 36.528 163.88 34.8943 161.018 33.2171C158.242 31.5906 155.509 29.8991 152.726 28.287C150.384 26.9352 147.999 25.6557 145.635 24.34C143.719 23.2702 141.803 22.2003 139.895 21.1159C136.237 19.034 132.579 16.9449 128.835 15.0147C127.107 14.1256 125.408 13.193 123.695 12.2967C123.558 12.2244 123.442 12.1232 123.261 12.1449H123.254ZM100.114 22.4822C100.259 22.381 100.345 22.3376 100.425 22.2726C101.712 21.1521 103.042 20.0822 104.35 18.9762C105.811 17.74 107.206 16.4316 108.644 15.1738C109.779 14.1762 110.849 13.1208 111.839 11.993C112.396 11.3641 112.931 10.7063 113.314 9.95449C113.567 9.46293 113.466 9.28943 112.924 9.31835C112.259 9.35449 111.601 9.47016 110.972 9.6798C109.013 10.3376 107.119 11.1328 105.247 12.022C103.331 12.9256 101.611 14.0894 100.143 15.6075C99.3624 16.4244 98.7913 17.3714 98.7262 18.5786C98.6539 20.0605 99.1093 21.3328 100.1 22.4894L100.114 22.4822ZM177.456 127.988C175.425 127.634 173.524 127.634 171.601 128.118C170.155 128.487 168.753 128.95 167.56 129.853C166.541 130.627 165.623 131.516 165.29 132.839C165.023 133.887 165.442 134.776 166.425 135.21C169.078 136.395 171.362 135.492 173.473 133.901C174.449 133.164 175.223 132.195 175.909 131.169C176.56 130.186 177.008 129.116 177.464 127.988H177.456ZM123.261 4.61233C123.182 3.30389 122.632 2.21955 121.367 1.73522C120.305 1.3304 119.321 1.51835 118.331 1.89425C117.478 2.21955 116.914 2.84847 116.531 3.66534C116.292 4.17136 116.307 4.66293 116.603 5.12558C116.892 5.57377 117.189 6.01473 117.579 6.39064C118.613 7.381 119.784 8.19064 121.006 8.93522C121.331 9.1304 121.519 9.07257 121.678 8.76895C122.155 7.87257 122.712 7.01232 122.986 6.01473C123.117 5.54485 123.247 5.0822 123.268 4.61233H123.261ZM181.844 40.1858C182.018 40.1714 182.3 40.1352 182.574 40.1063C183.774 39.9834 184.598 39.3111 185.155 38.2918C185.864 36.9979 185.314 35.422 184.02 34.8653C183.695 34.7208 183.391 34.728 183.059 34.8581C182.408 35.1184 182.09 35.6678 181.823 36.2533C181.353 37.287 181.158 38.3931 181.078 39.5208C181.035 40.1714 181.071 40.2003 181.844 40.1858Z" fill="#121212"/>
<path d="M99.7019 40.8222C99.6802 40.4246 99.7958 40.2222 99.8898 40.0198C101.285 37.0777 102.724 34.1499 104.307 31.3018C104.379 31.1716 104.444 31.0271 104.531 30.9042C104.733 30.615 105.008 30.521 105.333 30.6656C105.63 30.7957 105.832 31.1861 105.716 31.4897C105.521 31.9885 105.29 32.4656 105.044 32.9427C103.801 35.3138 102.695 37.7427 101.538 40.1572C101.372 40.4969 101.242 40.8728 100.952 41.1331C100.721 41.3499 100.439 41.4656 100.114 41.3427C99.8031 41.2271 99.7236 40.9668 99.7091 40.8295L99.7019 40.8222Z" fill="#121212"/>
<path d="M111.673 42.9177C111.89 39.9683 112.107 37.1418 112.692 34.3659C112.721 34.243 112.728 34.1128 112.772 33.99C112.916 33.5635 113.213 33.361 113.56 33.4333C113.914 33.5128 114.087 33.8092 114.03 34.2647C113.95 34.843 113.806 35.4213 113.769 36.0068C113.625 38.2984 113.263 40.5683 113.162 42.8671C113.162 43.0189 113.162 43.1779 113.119 43.3225C113.01 43.6984 112.721 43.843 112.36 43.8502C112.02 43.8574 111.738 43.6044 111.673 43.243C111.644 43.0912 111.673 42.9394 111.673 42.9104V42.9177Z" fill="#121212"/>
<path d="M64.8366 79.5985C64.0053 78.4708 63.0511 77.4804 61.9161 76.678C58.7571 74.4443 55.3451 72.7744 51.4993 72.0588C48.68 71.5383 45.8752 71.3575 43.0776 72.1527C42.9041 72.2033 42.7306 72.2539 42.5571 72.2612C42.2535 72.2684 42.0005 72.131 41.8921 71.8419C41.7836 71.5527 41.8559 71.2853 42.08 71.0684C42.2535 70.9021 42.4631 70.8226 42.6872 70.7648C44.6029 70.2515 46.5402 70.0274 48.5282 70.1865C53.7041 70.5913 58.3595 72.3696 62.5812 75.3624C64.0993 76.4395 65.321 77.7985 66.4487 79.266C66.5282 79.3672 66.6005 79.4756 66.6583 79.5913C67.0125 80.2925 66.7523 80.878 65.986 81.0298C65.3137 81.16 64.627 81.2467 63.9402 81.319C61.0342 81.6515 58.1282 81.6154 55.2222 81.3479C52.533 81.1021 49.9234 80.5094 47.4511 79.4322C44.1981 78.0154 41.4511 75.9624 39.4631 72.9696C39.2969 72.7166 39.1378 72.5575 38.7981 72.5792C37.3884 72.666 36.0222 72.9624 34.6704 73.3672C34.3451 73.4684 34.3451 73.6997 34.3161 73.96C34.186 75.2539 34.0487 76.5479 33.8969 77.8419C33.8318 78.4274 33.7378 79.0057 33.6294 79.5841C33.5643 79.9383 33.6511 80.0828 34.0415 80.1118C35.5957 80.2202 37.1282 80.4877 38.6463 80.8563C39.268 81.0081 39.8752 81.1961 40.4607 81.4563C42.5282 82.3889 43.6487 83.9359 43.6053 86.2491C43.5836 87.6588 43.3523 89.0467 43.0921 90.4274C42.6583 92.7335 42.2535 95.0467 41.5523 97.2949C41.3065 98.0756 41.0318 98.8419 40.6053 99.5503C39.8752 100.743 38.827 101.495 37.4174 101.517C34.0993 101.567 30.774 101.603 27.4848 101.083C26.8776 100.989 26.2921 100.815 25.721 100.577C24.5716 100.092 23.8776 99.2467 23.6174 98.0322C23.3716 96.8539 23.2559 95.6612 23.0896 94.4756C22.6631 91.4178 22.2655 88.3527 22.0776 85.266C22.0559 84.9118 22.0342 84.5503 22.0559 84.1961C22.0848 83.7335 22.3234 83.4804 22.6848 83.4804C23.039 83.4804 23.2848 83.7262 23.321 84.1961C23.4294 85.6491 23.5884 87.0949 23.7764 88.5407C24.1667 91.5045 24.5282 94.4684 24.9692 97.4178C25.1282 98.4877 25.7065 99.1166 26.7113 99.4057C27.5499 99.6515 28.4029 99.7961 29.2704 99.8684C31.7137 100.085 34.1716 100.042 36.6222 100.092C36.7234 100.092 36.8246 100.092 36.9258 100.092C38.2342 100.121 39.0945 99.4853 39.6149 98.3214C40.2294 96.9624 40.5764 95.5238 40.8872 94.0708C41.3571 91.8732 41.827 89.6756 42.0728 87.4419C42.1161 87.0588 42.1523 86.6828 42.1595 86.2997C42.174 84.5792 41.4366 83.4588 39.8535 82.772C38.8848 82.3527 37.8583 82.1576 36.8318 81.9479C35.827 81.7383 34.8077 81.666 33.7957 81.5286C33.3836 81.478 33.268 81.6443 33.1884 81.9985C33.0872 82.4973 32.9499 82.9961 32.7981 83.4804C32.5957 84.1166 32.2704 84.6949 31.8222 85.2009C31.1933 85.9238 30.4125 86.372 29.4439 86.4515C28.5402 86.531 27.6511 86.4588 26.7981 86.1768C26.0029 85.9166 25.3306 85.4612 24.933 84.6877C24.3836 83.625 24.6077 82.4828 25.5258 81.7166C26.0824 81.2539 26.7258 80.9431 27.4053 80.719C28.7716 80.2708 30.1595 79.9527 31.6053 79.96C31.9306 79.96 32.1258 79.8949 32.1836 79.5262C32.4439 77.8057 32.6824 76.0925 32.8125 74.3575C32.8125 74.2563 32.8053 74.1551 32.7908 74.0322C32.4583 73.9672 32.1908 74.1407 31.9089 74.2274C29.8848 74.8636 27.839 75.3841 25.7065 75.5503C23.7258 75.7021 21.7812 75.4925 19.8366 75.1744C16.974 74.6973 14.227 73.8732 11.6174 72.5792C9.36916 71.466 7.43181 69.9479 5.68964 68.1551C3.88964 66.3045 2.24868 64.3094 0.773978 62.1913C0.49928 61.7937 0.224581 61.3889 0.0727735 60.919C-0.201925 60.0804 0.173978 59.4732 1.05591 59.4226C4.75711 59.1985 8.45832 59.0901 12.1523 59.4949C14.8559 59.7913 17.4872 60.3118 20.0174 61.3672C24.0294 63.0443 27.268 65.6106 29.5668 69.319C29.6318 69.4274 29.7113 69.5286 29.7692 69.6443C29.9571 70.0202 30.2174 70.1359 30.6439 70.0274C31.2366 69.8829 31.8439 69.7744 32.4511 69.6949C32.8704 69.6443 33.0005 69.4491 32.986 69.0371C32.921 67.5118 32.5957 66.0588 31.8655 64.6997C31.0921 63.2756 30.0728 62.0322 29.0463 60.7961C26.827 58.1142 24.8463 55.2732 23.0463 52.2949C21.0077 48.9118 19.786 45.2756 19.3161 41.3648C19.0053 38.7985 18.7451 36.2395 18.7306 33.6587C18.7306 33.4057 18.7089 33.1455 18.7957 32.8997C18.9908 32.3503 19.5113 32.1407 20.0246 32.4154C20.1547 32.4877 20.2776 32.5889 20.3933 32.6828C24.0583 35.7696 26.8125 39.5142 28.5908 43.9744C29.6318 46.5768 30.2607 49.2804 30.6728 52.0347C30.7161 52.3383 30.7378 52.6419 30.9113 52.9961C31.1427 51.9913 31.3451 51.0515 31.5764 50.119C32.8414 45.0732 34.9668 40.4467 38.3354 36.4347C39.9475 34.519 41.8414 32.9431 44.0246 31.7142C44.1547 31.6419 44.292 31.5624 44.4294 31.4973C45.1451 31.1792 45.6945 31.3889 45.9547 32.1262C46.2005 32.7985 46.2655 33.5214 46.374 34.2226C47.0607 38.8202 46.4174 43.2298 44.4511 47.4443C43.4824 49.5262 42.174 51.3696 40.5764 53.0178C39.4776 54.16 38.2993 55.2154 37.1282 56.2853C36.0583 57.2684 34.974 58.2443 34.0704 59.4009C33.8824 59.6395 33.7234 59.9069 33.5354 60.1527C33.3619 60.3913 33.3764 60.5937 33.5354 60.8467C34.2439 61.9672 34.9306 63.1021 35.6318 64.2371C35.6824 64.3238 35.7186 64.425 35.8704 64.4467C36.08 64.3672 36.1451 64.1286 36.2607 63.9407C38.3282 60.572 40.974 57.7238 44.039 55.2443C47.227 52.6636 50.9065 51.16 54.8969 50.372C57.3764 49.8804 59.8921 49.6202 62.4005 49.3166C64.1282 49.1069 65.8342 48.8106 67.5402 48.4925C67.7137 48.4636 67.8945 48.4057 68.068 48.4057C68.8125 48.4057 69.174 49.013 68.8125 49.6636C68.6752 49.9093 68.4945 50.1262 68.3282 50.3503C67.6342 51.2973 67.0125 52.3021 66.427 53.3142C62.7981 59.5961 57.4776 63.825 50.7113 66.3262C46.2945 67.96 41.733 69.066 37.1643 70.1503C36.4198 70.3238 35.668 70.4828 34.9234 70.6636C34.4969 70.7648 34.2294 71.3359 34.4174 71.7262C34.5041 71.9142 34.6776 71.8491 34.8222 71.813C35.292 71.7045 35.7619 71.5672 36.2318 71.4588C37.1788 71.2491 38.1475 71.1696 39.1161 71.1045C39.68 71.0612 40.0921 71.2563 40.3884 71.7624C41.6174 73.8949 43.4029 75.478 45.4559 76.7792C48.1161 78.4708 51.0583 79.36 54.1451 79.772C57.5282 80.2202 60.9186 80.2563 64.3089 79.8009C64.4535 79.7792 64.6125 79.8154 64.8005 79.6057L64.8366 79.5985ZM66.5427 50.2419C66.3402 50.1407 66.1378 50.213 65.9499 50.2491C64.5909 50.5021 63.2246 50.6539 61.8583 50.8347C59.4583 51.1527 57.0366 51.3841 54.6655 51.8973C51.2029 52.6491 47.9933 53.9792 45.1957 56.1913C42.1017 58.6347 39.4631 61.4901 37.4174 64.8732C37.2077 65.2202 37.0053 65.5816 36.774 65.9142C36.2029 66.7455 35.5089 66.7383 34.974 65.8925C34.8511 65.6973 34.7427 65.4949 34.6198 65.2997C33.8174 63.9985 33.0366 62.6756 32.1908 61.3961C31.7643 60.7527 31.7643 60.2322 32.1764 59.5816C33.0005 58.2949 34.0198 57.2033 35.1186 56.1696C36.4198 54.9407 37.7643 53.7624 39.0294 52.5045C43.88 47.6684 45.7378 41.7913 45.0222 35.0395C44.9499 34.3889 44.9282 33.7238 44.6896 33.0949C44.3933 33.0949 44.1981 33.2828 43.9884 33.413C42.3692 34.4178 40.9378 35.6395 39.6872 37.078C36.4415 40.8226 34.4029 45.1744 33.1234 49.9238C32.4945 52.2443 32.1547 54.6226 31.7571 56.9865C31.7065 57.2612 31.6559 57.5431 31.5258 57.7961C31.374 58.0925 31.1282 58.2588 30.7812 58.2298C30.4704 58.2082 30.268 58.0274 30.1595 57.7383C30.1089 57.5937 30.0728 57.4419 30.0439 57.2973C29.8921 56.3937 29.7258 55.4901 29.5884 54.5792C29.2487 52.331 28.9595 50.0756 28.3595 47.878C26.986 42.9045 24.6294 38.5021 20.7547 34.9961C20.6174 34.8732 20.5234 34.6347 20.2414 34.7286C20.2414 35.0828 20.227 35.4371 20.2414 35.7913C20.3571 38.2419 20.6535 40.678 21.0583 43.0925C21.4559 45.4274 22.1788 47.6467 23.3065 49.7359C24.4704 51.8973 25.7499 53.9865 27.1668 55.9889C28.6053 58.013 30.2318 59.878 31.7354 61.8443C32.9933 63.4853 33.9692 65.2636 34.2728 67.3455C34.3378 67.772 34.3595 68.2057 34.4174 68.6395C34.4896 69.2395 34.4969 69.2467 35.0607 69.1238C35.6318 69.0009 36.2029 68.8636 36.774 68.7262C41.3427 67.6419 45.9113 66.5431 50.321 64.9021C55.4101 63.0081 59.7475 60.0587 63.0872 55.7286C64.3812 54.0443 65.3933 52.172 66.521 50.3792C66.5426 50.3431 66.5282 50.278 66.5354 50.2274L66.5427 50.2419ZM1.75711 60.8033C1.80048 61.1648 1.96675 61.331 2.09687 61.5118C3.44868 63.4347 4.95229 65.2347 6.56434 66.9479C8.88482 69.4057 11.6246 71.2057 14.8053 72.3551C17.0029 73.1503 19.2583 73.6491 21.5643 73.9455C23.6752 74.2202 25.786 74.213 27.8824 73.7865C29.386 73.4828 30.8463 73.0347 32.3065 72.5648C32.9643 72.3551 32.9643 72.3551 32.9788 71.6684C32.9788 71.4804 33.0583 71.2636 32.8631 71.0973C32.2631 71.2057 31.6631 71.2997 31.0631 71.4154C29.5523 71.6901 29.3354 71.5961 28.4896 70.2877C28.3957 70.1359 28.3017 69.9841 28.2005 69.8395C27.3547 68.5889 26.4439 67.3961 25.3234 66.3696C22.8077 64.0491 19.8294 62.5889 16.5619 61.7142C13.7137 60.9551 10.7788 60.7527 7.84386 60.6588C5.83422 60.5937 3.82458 60.76 1.76434 60.8106L1.75711 60.8033ZM28.8077 84.9985C30.0149 85.1431 30.7595 84.4636 31.2655 83.4154C31.4752 82.9744 31.6053 82.5045 31.7065 82.0347C31.8294 81.4708 31.7788 81.4057 31.2005 81.4274C29.7836 81.4925 28.4318 81.8178 27.1378 82.3961C26.9282 82.4901 26.733 82.613 26.5523 82.7503C25.974 83.1985 25.9378 83.8057 26.4511 84.3262C26.7113 84.5865 27.0294 84.7383 27.3764 84.8395C27.8174 84.9624 28.2728 85.0202 28.7933 84.9985H28.8077Z" fill="#121212"/>
</g>
<defs>
<clipPath id="clip0_2366_713">
<rect width="194.458" height="180" fill="white"/>
</clipPath>
</defs>
</svg>
