<svg xmlns="http://www.w3.org/2000/svg" width="20" height="20" viewBox="0 0 20 20" fill="none">
<path fill-rule="evenodd" clip-rule="evenodd" d="M1 9.9998C1 5.03686 5.03698 0.999878 9.99993 0.999878V1.00003H10.0052C14.9681 1.00003 19.0051 5.03701 19.0051 9.99995C19.0051 14.9627 14.9681 18.9999 10.0052 18.9999C8.17444 18.9999 6.47602 18.455 5.05281 17.5132L1.59252 18.6188L2.71424 15.275C1.63493 13.7934 1 11.968 1 9.9998ZM6.91444 5.12679C7.17889 5.13754 7.31119 5.15337 7.48575 5.57132C7.54214 5.70743 7.61961 5.89536 7.70451 6.10132C7.94627 6.68782 8.24827 7.42045 8.29524 7.51836C8.3587 7.65066 8.42232 7.8306 8.33227 8.00516C8.25351 8.17255 8.18392 8.25297 8.06809 8.38683C8.05941 8.39687 8.05046 8.4072 8.04124 8.41789C7.98462 8.48359 7.92898 8.54247 7.87349 8.60121C7.79931 8.67971 7.72539 8.75795 7.64971 8.85183C7.64759 8.85432 7.64547 8.85681 7.64335 8.8593C7.52345 8.99997 7.39316 9.15284 7.54399 9.41269C7.69735 9.67192 8.2264 10.5343 9.00423 11.2273C9.92735 12.0483 10.6897 12.3565 11.0336 12.4956C11.0642 12.5079 11.0916 12.519 11.1154 12.5289C11.3322 12.619 11.5916 12.5978 11.7503 12.4284C11.9224 12.243 12.1292 11.9528 12.3444 11.6509C12.3807 11.5999 12.4173 11.5485 12.4541 11.4973C12.6339 11.2433 12.8613 11.2115 13.0995 11.3013C13.3429 11.386 14.6287 12.0209 14.8931 12.1532C14.9471 12.1803 14.9974 12.2045 15.0438 12.2267C15.2243 12.3135 15.3453 12.3717 15.3958 12.4601C15.4594 12.5712 15.4594 13.095 15.2424 13.7089C15.0254 14.3225 14.1629 14.8306 13.4752 14.9788C13.0043 15.0792 12.3905 15.1587 10.3217 14.3016C7.87139 13.2869 6.22893 10.9061 5.89486 10.4218C5.86826 10.3833 5.84996 10.3567 5.8402 10.3439C5.83648 10.3388 5.83206 10.3327 5.82699 10.3258C5.6589 10.096 4.77148 8.8827 4.77148 7.62946C4.77148 6.37461 5.39133 5.74468 5.66892 5.46258C5.67693 5.45444 5.68465 5.44659 5.69207 5.43902C5.90904 5.21683 6.26876 5.11633 6.6128 5.11633C6.71343 5.11683 6.81402 5.12032 6.91444 5.12679Z" fill="white"/>
</svg>